<?xml version="1.0" encoding="UTF-8"?>
<svg id="Layer_2" data-name="Layer 2" xmlns="http://www.w3.org/2000/svg" viewBox="0 0 800 800">
  <defs>
    <style>
      .cls-1 {
        fill: #fff;
        stroke-width: 0px;
      }
    </style>
  </defs>
  <g id="Layer_1-2" data-name="Layer 1">
    <path class="cls-1" d="m400,0C179.1,0,0,179.1,0,400s179.1,400,400,400,400-179.1,400-400S620.9,0,400,0Zm0,61.53c186.5.23,337.6,151.5,337.6,338.03s-151.33,338.03-338.03,338.03S61.53,586.27,61.53,399.57c0-93.33,37.83-177.83,99-239,61.23-61.17,145.8-99,239.2-99h.23l.03-.03Zm0,92.33c-146.4,25.8-276.93,160.8-276.93,307.67,71.63-126.47,119.47-135.57,132.7-135.57s20.2,6.87,20.2,22.1v188.47c0,23.43-45.53,19.6-60.6,17.3,55.67,82.83,184.63,92.33,184.63,92.33l61.53-61.53,61.53,30.77c97.13-44.47,153.83-139.67,153.83-153.83-23.37,28.93-54.87,50.5-91.03,61.2l-1.3.33c-8.17,0-30.77-4.2-30.77-15.4v-223.1c0-19.37,44.73-78.47,61.53-100-111.07,29.1-143.27,79.8-143.27,79.8,0,0-8.43-18.27-41.33-18.27,16.7,15.77,27.93,37.13,30.73,61.07l.03.47v188.47c-17.5,12.43-38.13,21.77-60.43,26.7l-1.13.2c-21.33,0-31.73-8.67-31.73-25s.97-221.13.97-221.13c0,0-30.77,11.3-30.77-51.93,0-31.63,61.53-71.17,61.53-71.17l.07.07Z"/>
  </g>
</svg>